<?xml version="1.0" encoding="UTF-8"?>
<svg version="1.1" xmlns="http://www.w3.org/2000/svg" width="256" height="163">
<path d="M0 0 C0.74886475 0.00523682 1.49772949 0.01047363 2.26928711 0.01586914 C3.07817383 0.0190918 3.88706055 0.02231445 4.72045898 0.02563477 C5.5705957 0.03401367 6.42073242 0.04239258 7.29663086 0.05102539 C8.15063477 0.05553711 9.00463867 0.06004883 9.88452148 0.06469727 C12.00108749 0.07652166 14.11761771 0.0944577 16.23413086 0.11352539 C16.56982383 1.73803958 16.90261046 3.36315456 17.23413086 4.98852539 C17.41975586 5.89344727 17.60538086 6.79836914 17.79663086 7.73071289 C18.23413086 10.11352539 18.23413086 10.11352539 18.23413086 12.11352539 C39.68413086 12.11352539 61.13413086 12.11352539 83.23413086 12.11352539 C83.23413086 18.01392444 82.92686388 22.53001158 81.51928711 28.07836914 C81.34409042 28.79714737 81.16889374 29.5159256 80.98838806 30.25648499 C80.6202818 31.75913296 80.24780085 33.26071558 79.87109375 34.76123047 C79.29260872 37.06705754 78.7281317 39.37598382 78.16577148 41.68579102 C77.80524568 43.15018149 77.44394582 44.61438165 77.08178711 46.07836914 C76.82704369 47.11573463 76.82704369 47.11573463 76.56715393 48.17405701 C75.35088912 52.99676713 75.35088912 52.99676713 74.23413086 54.11352539 C71.19816718 54.27472531 68.18279461 54.3735595 65.14428711 54.42993164 C63.74550575 54.46110329 63.74550575 54.46110329 62.31846619 54.49290466 C60.32857037 54.53629803 58.33862178 54.57732334 56.34863281 54.61621094 C53.36827352 54.67462131 50.38813968 54.74004006 47.40795898 54.80688477 C42.60683396 54.91136718 37.80567264 54.9979211 33.00396729 55.07086182 C31.16908342 55.09912439 29.33423968 55.13013537 27.49945068 55.16400146 C24.97221573 55.20848787 22.44520397 55.23937639 19.91772461 55.26586914 C19.16491714 55.28098038 18.41210968 55.29609161 17.63648987 55.31166077 C15.83452564 55.32253835 14.03251454 55.22758471 12.23413086 55.11352539 C9.81407948 52.69347401 9.97083848 52.07041318 9.9152832 48.75561523 C9.89541351 47.85483246 9.87554382 46.95404968 9.85507202 46.02597046 C9.84352081 45.05197296 9.8319696 44.07797546 9.82006836 43.07446289 C9.80070221 42.07847076 9.78133606 41.08247864 9.76138306 40.05630493 C9.70148121 36.86713289 9.65515948 33.67792496 9.60913086 30.48852539 C9.57096085 28.32965526 9.5319097 26.17080051 9.49194336 24.01196289 C9.39577116 18.71262005 9.31075497 13.41318496 9.23413086 8.11352539 C8.53545898 8.13672852 7.83678711 8.15993164 7.11694336 8.18383789 C6.20686523 8.20188477 5.29678711 8.21993164 4.35913086 8.23852539 C3.45420898 8.26172852 2.54928711 8.28493164 1.61694336 8.30883789 C-0.76586914 8.11352539 -0.76586914 8.11352539 -2.76586914 6.11352539 C-2.95336914 3.55102539 -2.95336914 3.55102539 -2.76586914 1.11352539 C-1.76586914 0.11352539 -1.76586914 0.11352539 0 0 Z " fill="#FD9D03" transform="translate(67.765869140625,48.886474609375)"/>
<path d="M0 0 C3.52485063 2.00432683 4.73602612 3.05574407 6.1875 6.8125 C6.375 10.625 6.375 10.625 6.1875 13.8125 C4.5375 13.8125 2.8875 13.8125 1.1875 13.8125 C0.775 12.69875 0.3625 11.585 -0.0625 10.4375 C-1.07978696 8.10010577 -1.63588894 6.95866088 -3.625 5.3125 C-6.66579027 4.61746222 -8.81831617 4.98432149 -11.8125 5.8125 C-13.67051239 7.24941955 -13.67051239 7.24941955 -14.8125 8.8125 C-14.31565166 11.31356835 -14.31565166 11.31356835 -12.8125 13.8125 C-9.67456898 15.11162984 -9.67456898 15.11162984 -6 15.8125 C-0.43201109 17.03288113 2.58399953 18.29815163 6.1875 22.8125 C7.85267627 27.22483342 7.57370366 30.86454555 5.8125 35.1875 C2.27465829 38.72534171 -0.86321902 40.14180304 -5.8125 40.8125 C-11.75925689 40.52133831 -16.62994826 39.25646122 -20.8125 34.8125 C-23.32917585 31.33709049 -22.97328393 27.99288223 -22.8125 23.8125 C-20.8325 23.8125 -18.8525 23.8125 -16.8125 23.8125 C-16.565 25.09125 -16.3175 26.37 -16.0625 27.6875 C-15.28003297 30.87693742 -15.28003297 30.87693742 -13.1875 33.3125 C-9.55863482 34.07647162 -6.53625373 34.10803601 -2.8125 33.8125 C-0.803255 32.47891006 -0.803255 32.47891006 0.1875 30.8125 C-0.28807111 27.3340837 -0.28807111 27.3340837 -1.8125 23.8125 C-4.92073096 22.28004345 -4.92073096 22.28004345 -8.625 21.6875 C-14.24702807 20.53821291 -17.1423406 19.31555536 -20.8125 14.8125 C-22.14321447 10.50724732 -22.21192588 8.64330584 -20.25 4.5625 C-14.47586388 -1.95190998 -7.93050795 -2.47015822 0 0 Z " fill="#EAA121" transform="translate(221.8125,60.1875)"/>
<path d="M0 0 C3.08814825 1.65043553 4.33052852 4.09285694 5.60083008 7.30395508 C6.75082535 11.48614761 6.65835993 15.69050351 6.625 20 C6.6549707 21.37961914 6.6549707 21.37961914 6.68554688 22.78710938 C6.68050925 29.79444049 5.33107064 33.18165898 0.4375 38.25 C-4.43648614 40.82238157 -8.44407767 40.8480267 -13.5625 39.3125 C-17.55185847 37.01094704 -19.7644678 34.5335644 -21.8125 30.4375 C-22.10648762 27.06941564 -22.09056301 23.69191654 -22.125 20.3125 C-22.15400391 19.38695313 -22.18300781 18.46140625 -22.21289062 17.5078125 C-22.26937454 11.35541111 -21.48634488 6.50754848 -17.8125 1.4375 C-12.32139603 -2.55603016 -6.03019315 -2.95148694 0 0 Z M-13.8125 6.4375 C-17.86732408 13.14893296 -17.83535086 20.89889093 -16.0625 28.4375 C-14.6993811 31.70898535 -14.00351693 32.9306309 -10.8125 34.4375 C-7.85529372 35.10430368 -7.85529372 35.10430368 -4.8125 34.4375 C-1.9504699 32.38357251 -0.09386199 30.77149554 0.65258789 27.23242188 C0.82520209 24.61671218 0.82025224 22.05771866 0.75 19.4375 C0.76095703 18.54804687 0.77191406 17.65859375 0.78320312 16.7421875 C0.73565724 12.49475536 0.56689602 10.05460889 -1.6953125 6.375 C-5.99146686 2.44346391 -9.4311724 2.74796097 -13.8125 6.4375 Z " fill="#EDA022" transform="translate(187.8125,60.5625)"/>
<path d="M0 0 C0.80671143 0.00142502 1.61342285 0.00285004 2.44458008 0.00431824 C3.35892822 0.00124161 4.27327637 -0.00183502 5.21533203 -0.00500488 C6.2049292 0.00218063 7.19452637 0.00936615 8.21411133 0.01676941 C9.73427856 0.01745674 9.73427856 0.01745674 11.28515625 0.01815796 C13.43043181 0.02118247 15.57570514 0.02907466 17.72094727 0.04142761 C21.01301821 0.05966286 24.30480771 0.06193748 27.59692383 0.06169128 C29.67765544 0.06660717 31.75838513 0.0724358 33.83911133 0.07926941 C34.8287085 0.08038223 35.81830566 0.08149506 36.83789062 0.0826416 C37.75223877 0.08902145 38.66658691 0.09540131 39.60864258 0.10197449 C40.81870972 0.10769218 40.81870972 0.10769218 42.05322266 0.11352539 C44.02661133 0.24723816 44.02661133 0.24723816 46.02661133 1.24723816 C46.06933233 2.91335721 46.06724965 4.58106701 46.02661133 6.24723816 C45.02661133 7.24723816 45.02661133 7.24723816 43.08409119 7.36749268 C42.23359695 7.36527206 41.38310272 7.36305145 40.50683594 7.36076355 C39.06545509 7.36065025 39.06545509 7.36065025 37.59495544 7.36053467 C36.55017532 7.35537338 35.5053952 7.3502121 34.42895508 7.34489441 C33.36495987 7.34347946 32.30096466 7.34206451 31.20472717 7.34060669 C27.7911605 7.3349888 24.37765833 7.32243327 20.96411133 7.30973816 C18.65616956 7.30472546 16.34822678 7.30016216 14.0402832 7.29606628 C8.36903706 7.28501356 2.6978288 7.26825803 -2.97338867 7.24723816 C-3.59838867 4.87223816 -3.59838867 4.87223816 -3.97338867 2.24723816 C-1.97338867 0.24723816 -1.97338867 0.24723816 0 0 Z " fill="#F09D15" transform="translate(27.973388671875,80.75276184082031)"/>
<path d="M0 0 C2.60865509 1.6722148 3.63837061 2.89147591 4.59765625 5.83203125 C5.40430602 9.92793251 5.19158812 11.63664321 3.1875 15.4375 C0.28538912 18.83711561 -0.29011091 18.94181237 -4.8125 19.3125 C-8.13227327 19.28232024 -8.99044521 19.0060988 -11.9375 17.125 C-15.07093316 13.89661432 -15.39218693 11.55070291 -15.359375 7.0390625 C-14.7567698 3.61993302 -12.63213933 2.06810948 -10 0 C-6.72864697 -1.63567651 -3.42638348 -0.85489964 0 0 Z " fill="#F3741B" transform="translate(92,106)"/>
<path d="M0 0 C2.38312703 1.89428046 3.6500559 3.30011179 5 6 C5.12243863 10.53022942 4.81830145 13.98332245 1.9375 17.5625 C-1.88844599 19.43477144 -4.82161996 19.80191132 -9 19 C-11.9375 17.5625 -11.9375 17.5625 -14 15 C-15.0746786 11.14671161 -15.64043311 7.60832749 -14.13671875 3.83203125 C-10.76419866 -1.60340492 -5.59100221 -1.7544986 0 0 Z " fill="#FB7313" transform="translate(119,106)"/>
<path d="M0 0 C0.66 0 1.32 0 2 0 C2.33 5.94 2.66 11.88 3 18 C3.66 17.67 4.32 17.34 5 17 C5.31241371 14.45058627 5.51303421 11.99638487 5.625 9.4375 C5.66367188 8.72658203 5.70234375 8.01566406 5.7421875 7.28320312 C5.83671783 5.52257575 5.91945817 3.76132272 6 2 C6.33 2 6.66 2 7 2 C7.11689626 5.37470504 7.18747934 8.7488843 7.25 12.125 C7.30027344 13.55199219 7.30027344 13.55199219 7.3515625 15.0078125 C7.45210759 22.2470587 6.30718642 25.57469978 1.25 30.8125 C-3.62398614 33.38488157 -7.63157767 33.4105267 -12.75 31.875 C-16.18552216 29.89296799 -18.03364841 28.44111529 -20 25 C-19.75 22.1875 -19.75 22.1875 -19 20 C-18.34 20.33 -17.68 20.66 -17 21 C-17.33 21.99 -17.66 22.98 -18 24 C-17.34 24 -16.68 24 -16 24 C-16.165 23.2575 -16.33 22.515 -16.5 21.75 C-17.20054587 16.49590599 -17.07707499 11.29248251 -17 6 C-14.76140296 9.35789556 -14.95710083 10.96143458 -15.05078125 14.8671875 C-14.97241393 18.15861505 -14.16305957 20.93931691 -13 24 C-9.50875983 26.32749345 -8.10777749 26.50299316 -4 26 C-1.60102727 24.75003916 -1.60102727 24.75003916 0 22 C0.50020038 18.24024363 0.37486048 14.53423305 0.25 10.75 C0.23195312 9.71875 0.21390625 8.6875 0.1953125 7.625 C0.14822712 5.08238936 0.0824805 2.54166838 0 0 Z " fill="#EBA51F" transform="translate(187,68)"/>
<path d="M0 0 C1.5631897 0.00785522 1.5631897 0.00785522 3.15795898 0.01586914 C4.28266602 0.0190918 5.40737305 0.02231445 6.56616211 0.02563477 C7.75016602 0.03401367 8.93416992 0.04239258 10.15405273 0.05102539 C11.34192383 0.05553711 12.52979492 0.06004883 13.75366211 0.06469727 C16.69967499 0.07652864 19.64558954 0.09301252 22.59155273 0.11352539 C23.65405273 1.98852539 23.65405273 1.98852539 24.59155273 4.11352539 C24.26155273 4.77352539 23.93155273 5.43352539 23.59155273 6.11352539 C14.68155273 6.11352539 5.77155273 6.11352539 -3.40844727 6.11352539 C-3.40844727 0.16066173 -3.40844727 0.16066173 0 0 Z " fill="#F19C11" transform="translate(50.408447265625,63.886474609375)"/>
<path d="M0 0 C1.12019531 -0.00128906 2.24039063 -0.00257812 3.39453125 -0.00390625 C4.57402344 -0.00003906 5.75351562 0.00382812 6.96875 0.0078125 C8.73798828 0.00201172 8.73798828 0.00201172 10.54296875 -0.00390625 C12.22326172 -0.00197266 12.22326172 -0.00197266 13.9375 0 C14.97326172 0.00112793 16.00902344 0.00225586 17.07617188 0.00341797 C19.46875 0.1328125 19.46875 0.1328125 20.46875 1.1328125 C20.46875 2.7828125 20.46875 4.4328125 20.46875 6.1328125 C11.55875 6.1328125 2.64875 6.1328125 -6.53125 6.1328125 C-6.53125 -0.6643286 -6.11594885 0.00666018 0 0 Z " fill="#EF9C13" transform="translate(53.53125,99.8671875)"/>
<path d="M0 0 C21.45 0 42.9 0 65 0 C65 6.56353916 64.6957905 10.06473326 63 16 C62.67 16 62.34 16 62 16 C62.33 11.38 62.66 6.76 63 2 C42.21 2 21.42 2 0 2 C0 1.34 0 0.68 0 0 Z " fill="#E7A029" transform="translate(86,61)"/>
<path d="M0 0 C0.74886475 0.00523682 1.49772949 0.01047363 2.26928711 0.01586914 C3.07817383 0.0190918 3.88706055 0.02231445 4.72045898 0.02563477 C5.5705957 0.03401367 6.42073242 0.04239258 7.29663086 0.05102539 C8.15063477 0.05553711 9.00463867 0.06004883 9.88452148 0.06469727 C12.00108749 0.07652166 14.11761771 0.0944577 16.23413086 0.11352539 C16.59650349 1.73671518 16.94878243 3.3621612 17.29663086 4.98852539 C17.5924707 6.3459082 17.5924707 6.3459082 17.89428711 7.73071289 C18.23413086 10.11352539 18.23413086 10.11352539 17.23413086 12.11352539 C16.57413086 11.78352539 15.91413086 11.45352539 15.23413086 11.11352539 C15.23413086 8.47352539 15.23413086 5.83352539 15.23413086 3.11352539 C14.24413086 3.11352539 13.25413086 3.11352539 12.23413086 3.11352539 C12.23413086 2.45352539 12.23413086 1.79352539 12.23413086 1.11352539 C10.44152954 1.17347861 8.64987291 1.26224949 6.85913086 1.36352539 C5.86139648 1.40993164 4.86366211 1.45633789 3.83569336 1.50415039 C1.08148316 1.83513424 1.08148316 1.83513424 -0.11743164 4.16040039 C-0.33141602 4.80493164 -0.54540039 5.44946289 -0.76586914 6.11352539 C-0.13938477 6.10192383 0.48709961 6.09032227 1.13256836 6.07836914 C1.94983398 6.0693457 2.76709961 6.06032227 3.60913086 6.05102539 C4.42124023 6.03942383 5.23334961 6.02782227 6.07006836 6.01586914 C8.23413086 6.11352539 8.23413086 6.11352539 10.23413086 7.11352539 C11.16777591 9.85416766 11.37322798 12.43564518 11.42358398 15.31542969 C11.44866028 16.54141121 11.44866028 16.54141121 11.47424316 17.79216003 C11.4878186 18.66520279 11.50139404 19.53824554 11.51538086 20.43774414 C11.542995 21.79075371 11.542995 21.79075371 11.57116699 23.1710968 C11.64981028 27.027519 11.71783487 30.88410965 11.78637695 34.74072266 C11.83794689 37.55648858 11.89523171 40.37209721 11.95288086 43.18774414 C11.9664563 44.06685959 11.98003174 44.94597504 11.99401855 45.85173035 C11.68739215 49.80066789 11.68739215 49.80066789 13.23413086 53.11352539 C15.92648862 53.35031256 18.59911242 53.53550564 21.29663086 53.67602539 C22.43455078 53.74080078 22.43455078 53.74080078 23.59545898 53.80688477 C25.47478524 53.91326172 27.3544333 54.01392473 29.23413086 54.11352539 C29.23413086 54.44352539 29.23413086 54.77352539 29.23413086 55.11352539 C26.44220881 55.16733117 23.65131676 55.20710208 20.85913086 55.23852539 C20.06506836 55.2552832 19.27100586 55.27204102 18.45288086 55.28930664 C16.37921071 55.30688012 14.30529844 55.21687707 12.23413086 55.11352539 C9.81407948 52.69347401 9.97083848 52.07041318 9.9152832 48.75561523 C9.89541351 47.85483246 9.87554382 46.95404968 9.85507202 46.02597046 C9.84352081 45.05197296 9.8319696 44.07797546 9.82006836 43.07446289 C9.80070221 42.07847076 9.78133606 41.08247864 9.76138306 40.05630493 C9.70148121 36.86713289 9.65515948 33.67792496 9.60913086 30.48852539 C9.57096085 28.32965526 9.5319097 26.17080051 9.49194336 24.01196289 C9.39577116 18.71262005 9.31075497 13.41318496 9.23413086 8.11352539 C8.53545898 8.13672852 7.83678711 8.15993164 7.11694336 8.18383789 C6.20686523 8.20188477 5.29678711 8.21993164 4.35913086 8.23852539 C3.45420898 8.26172852 2.54928711 8.28493164 1.61694336 8.30883789 C-0.76586914 8.11352539 -0.76586914 8.11352539 -2.76586914 6.11352539 C-2.95336914 3.55102539 -2.95336914 3.55102539 -2.76586914 1.11352539 C-1.76586914 0.11352539 -1.76586914 0.11352539 0 0 Z " fill="#E39C29" transform="translate(67.765869140625,48.886474609375)"/>
<path d="M0 0 C1.33333333 0.33333333 2.66666667 0.66666667 4 1 C5.051875 1.1546875 5.051875 1.1546875 6.125 1.3125 C8 2 8 2 9.10498047 3.77246094 C10.06296573 6.15671012 10.2318141 7.77301303 10.1953125 10.328125 C10.18564453 11.52695313 10.18564453 11.52695313 10.17578125 12.75 C10.15902344 13.575 10.14226562 14.4 10.125 15.25 C10.11597656 16.09046875 10.10695312 16.9309375 10.09765625 17.796875 C10.07415817 19.86470604 10.03828908 21.93238995 10 24 C9.01 24.33 8.02 24.66 7 25 C5.40587716 21.81175432 5.89825265 18.37103338 5.9375 14.875 C5.94201172 14.12089844 5.94652344 13.36679688 5.95117188 12.58984375 C5.96296501 10.72652873 5.98090058 8.86325445 6 7 C5.01 7.33 4.02 7.66 3 8 C3 6.35 3 4.7 3 3 C2.01 2.67 1.02 2.34 0 2 C0 1.34 0 0.68 0 0 Z " fill="#FAA006" transform="translate(183,61)"/>
<path d="M0 0 C1.93166016 0.01740234 1.93166016 0.01740234 3.90234375 0.03515625 C5.19269531 0.04417969 6.48304688 0.05320313 7.8125 0.0625 C8.81152344 0.07410156 9.81054688 0.08570313 10.83984375 0.09765625 C10.83984375 0.75765625 10.83984375 1.41765625 10.83984375 2.09765625 C7.86984375 2.09765625 4.89984375 2.09765625 1.83984375 2.09765625 C1.83984375 3.08765625 1.83984375 4.07765625 1.83984375 5.09765625 C0.33984375 6.78515625 0.33984375 6.78515625 -1.16015625 8.09765625 C-0.50015625 10.07765625 0.15984375 12.05765625 0.83984375 14.09765625 C-0.15015625 15.08765625 -1.14015625 16.07765625 -2.16015625 17.09765625 C-5.16015625 15.09765625 -5.16015625 15.09765625 -5.97265625 11.34765625 C-6.32876719 7.51422674 -5.72190348 4.6549694 -4.16015625 1.09765625 C-3.16015625 0.09765625 -3.16015625 0.09765625 0 0 Z " fill="#EBA01E" transform="translate(208.16015625,60.90234375)"/>
<path d="M0 0 C1 2 1 2 0.375 4.5625 C-1 7 -1 7 -3.625 7.8125 C-4.40875 7.874375 -5.1925 7.93625 -6 8 C-6 8.33 -6 8.66 -6 9 C-7.4370809 9.05422947 -8.87475462 9.09289723 -10.3125 9.125 C-11.11300781 9.14820312 -11.91351563 9.17140625 -12.73828125 9.1953125 C-15 9 -15 9 -18 7 C-18 6.34 -18 5.68 -18 5 C-17.32453125 4.95101562 -16.6490625 4.90203125 -15.953125 4.8515625 C-15.06109375 4.77679688 -14.1690625 4.70203125 -13.25 4.625 C-12.36828125 4.55539063 -11.4865625 4.48578125 -10.578125 4.4140625 C-8.00933618 4.00149945 -6.24158985 3.28839043 -4 2 C-4 2.66 -4 3.32 -4 4 C-3.01 4 -2.02 4 -1 4 C-0.67 2.68 -0.34 1.36 0 0 Z " fill="#EC9E1A" transform="translate(191,90)"/>
<path d="M0 0 C0.99 0 1.98 0 3 0 C3 3.96 3 7.92 3 12 C2.34 12 1.68 12 1 12 C0.67 13.32 0.34 14.64 0 16 C-1.32 16 -2.64 16 -4 16 C-4 15.34 -4 14.68 -4 14 C-3.34 14 -2.68 14 -2 14 C-2 10.04 -2 6.08 -2 2 C-1.34 2 -0.68 2 0 2 C0 1.34 0 0.68 0 0 Z " fill="#EE9E17" transform="translate(224,81)"/>
<path d="M0 0 C0.33 0 0.66 0 1 0 C1.66 2.97 2.32 5.94 3 9 C3.99 9 4.98 9 6 9 C6 9.66 6 10.32 6 11 C8.64 11 11.28 11 14 11 C14 10.34 14 9.68 14 9 C14.99 9 15.98 9 17 9 C17 8.01 17 7.02 17 6 C17.66 6 18.32 6 19 6 C18.64978759 8.53903996 18.15988127 9.82093298 16.4375 11.75 C12.96129398 13.53266975 9.77812666 13.64468034 6 13 C3.0625 11.5625 3.0625 11.5625 1 9 C0.30804567 5.99980996 0.07223982 3.07347615 0 0 Z " fill="#DD7833" transform="translate(104,112)"/>
<path d="M0 0 C3 1.5 3 1.5 5 3 C2 3 2 3 -1 2 C-0.01 2.99 0.98 3.98 2 5 C1.67 5.99 1.34 6.98 1 8 C0.01 7.34 -0.98 6.68 -2 6 C-5.12521833 5.83300768 -5.12521833 5.83300768 -8 6 C-7.01 5.01 -6.02 4.02 -5 3 C-7.31 3 -9.62 3 -12 3 C-9.86930518 -1.26138963 -4.2031396 -0.49063886 0 0 Z " fill="#E8A32A" transform="translate(184,59)"/>
<path d="M0 0 C0.99 0 1.98 0 3 0 C3.33 5.28 3.66 10.56 4 16 C3.34 16 2.68 16 2 16 C1.67 14.68 1.34 13.36 1 12 C0.67 12.99 0.34 13.98 0 15 C0 10.05 0 5.1 0 0 Z " fill="#FA9E05" transform="translate(167,76)"/>
<path d="M0 0 C5.61 0 11.22 0 17 0 C19.125 9.75 19.125 9.75 18 12 C17.34 11.67 16.68 11.34 16 11 C16 8.36 16 5.72 16 3 C15.01 3 14.02 3 13 3 C13 2.34 13 1.68 13 1 C11.20759337 1.11389875 9.41605165 1.24147687 7.625 1.375 C6.62726563 1.44460937 5.62953125 1.51421875 4.6015625 1.5859375 C1.84491121 1.76363964 1.84491121 1.76363964 0 4 C0 2.68 0 1.36 0 0 Z " fill="#ED9F18" transform="translate(67,49)"/>
<path d="M0 0 C1.65 1.65 3.3 3.3 5 5 C3.68 5 2.36 5 1 5 C1.990755 6.66641006 1.990755 6.66641006 4 8 C7.91147543 8.48893443 11.26274081 8.24575306 15 7 C15.33 7.66 15.66 8.32 16 9 C10.78180574 11.21773256 7.42825156 11.22573422 2 10 C-0.5 7.9375 -0.5 7.9375 -2 6 C-1.34 6 -0.68 6 0 6 C0 4.02 0 2.04 0 0 Z " fill="#E6A529" transform="translate(172,90)"/>
<path d="M0 0 C0.99 0 1.98 0 3 0 C4.4783226 2.95664519 4.06032783 5.74229737 4 9 C2.35 9 0.7 9 -1 9 C-1.09765625 2.84765625 -1.09765625 2.84765625 -1 1 C-0.67 0.67 -0.34 0.34 0 0 Z " fill="#ED9C18" transform="translate(224,65)"/>
<path d="M0 0 C3.77899436 0.62635266 5.75683244 1.7672071 8.0625 4.9375 C8.0625 5.5975 8.0625 6.2575 8.0625 6.9375 C6.0625 6.9375 6.0625 6.9375 4.4375 5.4375 C3.98375 4.9425 3.53 4.4475 3.0625 3.9375 C2.7325 4.5975 2.4025 5.2575 2.0625 5.9375 C1.4025 4.6175 0.7425 3.2975 0.0625 1.9375 C-2.2475 2.2675 -4.5575 2.5975 -6.9375 2.9375 C-4.89814196 -0.24899693 -3.88073034 -0.06159889 0 0 Z " fill="#E27A2B" transform="translate(114.9375,105.0625)"/>
<path d="M0 0 C3.63 0.33 7.26 0.66 11 1 C11.33 1.99 11.66 2.98 12 4 C8.37 4 4.74 4 1 4 C0.67 2.68 0.34 1.36 0 0 Z " fill="#F89E08" transform="translate(207,95)"/>
<path d="M0 0 C0.99 0.33 1.98 0.66 3 1 C2.95875 1.9075 2.9175 2.815 2.875 3.75 C2.99531556 6.8782046 3.3914708 8.38614006 5 11 C2 11 2 11 0 10 C-1.29411765 2.58823529 -1.29411765 2.58823529 0 0 Z " fill="#FA9F04" transform="translate(203,66)"/>
<path d="M0 0 C1.33333333 0.33333333 2.66666667 0.66666667 4 1 C5.051875 1.0928125 5.051875 1.0928125 6.125 1.1875 C8 2 8 2 9.25 5.0625 C9.4975 6.031875 9.745 7.00125 10 8 C8.824375 7.505 8.824375 7.505 7.625 7 C5.15667503 5.88133489 5.15667503 5.88133489 3 6 C3 5.01 3 4.02 3 3 C2.01 2.67 1.02 2.34 0 2 C0 1.34 0 0.68 0 0 Z " fill="#F29B10" transform="translate(183,61)"/>
<path d="M0 0 C1.3271261 3.9813783 1.06915913 7.85045227 1 12 C1.99 12.33 2.98 12.66 4 13 C4 13.66 4 14.32 4 15 C1.66971908 14.06788763 0.24108468 13.30996602 -1.3125 11.3125 C-2.46081935 7.44997129 -1.79087746 3.58175492 0 0 Z " fill="#E3A230" transform="translate(202,64)"/>
<path d="M0 0 C2.64 0 5.28 0 8 0 C8 0.66 8 1.32 8 2 C9.98 2 11.96 2 14 2 C14.66 3.32 15.32 4.64 16 6 C10.63904723 4.41078475 5.29156027 2.81027062 0 1 C0 0.67 0 0.34 0 0 Z " fill="#DFA333" transform="translate(206,79)"/>
<path d="M0 0 C0.33 0 0.66 0 1 0 C1 1.65 1 3.3 1 5 C0.34 5 -0.32 5 -1 5 C-1.33 6.32 -1.66 7.64 -2 9 C-3.32 9 -4.64 9 -6 9 C-6 8.34 -6 7.68 -6 7 C-5.34 7 -4.68 7 -4 7 C-3.71125 6.21625 -3.4225 5.4325 -3.125 4.625 C-2 2 -2 2 0 0 Z " fill="#FA9F07" transform="translate(226,88)"/>
<path d="M0 0 C0.90105469 0.02707031 1.80210937 0.05414063 2.73046875 0.08203125 C3.76107422 0.13423828 3.76107422 0.13423828 4.8125 0.1875 C4.8125 0.8475 4.8125 1.5075 4.8125 2.1875 C1.8425 2.1875 -1.1275 2.1875 -4.1875 2.1875 C-4.1875 2.8475 -4.1875 3.5075 -4.1875 4.1875 C-5.5075 3.8575 -6.8275 3.5275 -8.1875 3.1875 C-5.67753317 0.01043235 -3.96125134 -0.15433447 0 0 Z " fill="#FB9E03" transform="translate(214.1875,60.8125)"/>
<path d="M0 0 C1.32 0 2.64 0 4 0 C4 0.66 4 1.32 4 2 C6.31 2 8.62 2 11 2 C11.33 2.66 11.66 3.32 12 4 C10.5629191 4.05422947 9.12524538 4.09289723 7.6875 4.125 C6.88699219 4.14820312 6.08648437 4.17140625 5.26171875 4.1953125 C3 4 3 4 0 2 C0 1.34 0 0.68 0 0 Z " fill="#FB9E05" transform="translate(173,95)"/>
<path d="M0 0 C7.18421053 0.45614035 7.18421053 0.45614035 11 3 C11 3.66 11 4.32 11 5 C9.35 4.67 7.7 4.34 6 4 C6 3.34 6 2.68 6 2 C3.36 2 0.72 2 -2 2 C-1.34 1.34 -0.68 0.68 0 0 Z " fill="#DF7B2D" transform="translate(84,105)"/>
<path d="M0 0 C-3.32307692 3.93846154 -3.32307692 3.93846154 -6.75 4.25 C-7.4925 4.1675 -8.235 4.085 -9 4 C-8.67 3.01 -8.34 2.02 -8 1 C-5.29120665 -0.35439668 -2.99066732 -0.06501451 0 0 Z " fill="#F89E05" transform="translate(180,61)"/>
<path d="M0 0 C0 1.65 0 3.3 0 5 C-0.99 5.495 -0.99 5.495 -2 6 C-2 4.35 -2 2.7 -2 1 C-2.99 1 -3.98 1 -5 1 C-5.33 1.99 -5.66 2.98 -6 4 C-6.33 3.34 -6.66 2.68 -7 2 C-6 0 -6 0 -4.0625 -0.6875 C-2 -1 -2 -1 0 0 Z " fill="#F17622" transform="translate(112,108)"/>
<path d="M0 0 C0.99 0 1.98 0 3 0 C2.67 1.65 2.34 3.3 2 5 C1.01 5 0.02 5 -1 5 C-1.33 4.01 -1.66 3.02 -2 2 C-1.34 1.34 -0.68 0.68 0 0 Z " fill="#FD710C" transform="translate(83,118)"/>
</svg>
